# xmcd CD database file
#
# Track frame offsets:
#	180
#	28756
#	55728
#	69992
#	97583
#
# Disc length: 1734 seconds
#
# Revision: 0
# Processed by: cddbd v1.5.2PL0 Copyright (c) Steve Scherf et al.
# Submitted via: CDex 1.70beta2
#
DISCID=3206c405
DTITLE=Katt Wildenhain Quartett - Naked Jazz Adventures
DYEAR=1994
DGENRE=Jazz
TTITLE0=Wassermonolith
TTITLE1=Mai Blues
TTITLE2=Schickerei Bebbo
TTITLE3=Virtual Landscape
TTITLE4=Sberg
EXTD=YEAR: 1994
EXTT0=
EXTT1=
EXTT2=
EXTT3=
EXTT4=
PLAYORDER=
